<svg xmlns="http://www.w3.org/2000/svg" viewBox="0 0 32 32"><defs><style>.prefix__cls-1{fill:#252432}</style></defs><g id="prefix__cart"><path class="prefix__cls-1" d="M29.46 10.14A2.94 2.94 0 0027.1 9H10.22L8.76 6.35A2.67 2.67 0 006.41 5H3a1 1 0 000 2h3.41a.68.68 0 01.6.31l1.65 3 .86 9.32a3.84 3.84 0 004 3.38h10.37a3.92 3.92 0 003.85-2.78l2.17-7.82a2.58 2.58 0 00-.45-2.27zM28 11.86l-2.17 7.83A1.93 1.93 0 0123.89 21H13.48a1.89 1.89 0 01-2-1.56L10.73 11H27.1a1 1 0 01.77.35.59.59 0 01.13.51z"/><circle class="prefix__cls-1" cx="14" cy="26" r="2"/><circle class="prefix__cls-1" cx="24" cy="26" r="2"/></g></svg>